<svg width="52" height="29" viewBox="0 0 52 29" fill="none" xmlns="http://www.w3.org/2000/svg">
<path d="M48.9999 0.75H2.99988C1.75724 0.75 0.749878 1.75736 0.749878 3V26C0.749878 27.2426 1.75724 28.25 2.99988 28.25H48.9999C50.2425 28.25 51.2499 27.2426 51.2499 26V3C51.2499 1.75736 50.2425 0.75 48.9999 0.75Z" stroke="black" stroke-width="1.5"/>
<path d="M28.0001 12.25H42.0001" stroke="black" stroke-width="1.5"/>
<path d="M10.0005 19.25H42.0005" stroke="black" stroke-width="1.5"/>
<path d="M20 14C21.1046 14 22 13.1046 22 12C22 10.8954 21.1046 10 20 10C18.8954 10 18 10.8954 18 12C18 13.1046 18.8954 14 20 14Z" fill="black"/>
<path d="M12.0005 14C13.1051 14 14.0005 13.1046 14.0005 12C14.0005 10.8954 13.1051 10 12.0005 10C10.8959 10 10.0005 10.8954 10.0005 12C10.0005 13.1046 10.8959 14 12.0005 14Z" fill="black"/>
</svg>
