<svg width="52" height="29" viewBox="0 0 52 29" fill="none" xmlns="http://www.w3.org/2000/svg">
<path d="M49.0003 0.75H3.00024C1.7576 0.75 0.750244 1.75736 0.750244 3V26C0.750244 27.2426 1.7576 28.25 3.00024 28.25H49.0003C50.2429 28.25 51.2503 27.2426 51.2503 26V3C51.2503 1.75736 50.2429 0.75 49.0003 0.75Z" stroke="black" stroke-width="1.5"/>
<path d="M36.0001 19.25H44.0001" stroke="black" stroke-width="1.5"/>
<path d="M30.0002 14.25H44.0002" stroke="black" stroke-width="1.5"/>
<path d="M30.0002 9.25H44.0002" stroke="black" stroke-width="1.5"/>
<mask id="mask0_50_4" style="mask-type:luminance" maskUnits="userSpaceOnUse" x="6" y="5" width="18" height="18">
<path d="M24.0001 5H6.00006V23H24.0001V5Z" fill="white"/>
</mask>
<g mask="url(#mask0_50_4)">
<path d="M15.0001 13.558C16.9841 13.558 18.5921 11.944 18.5921 9.95398C18.5921 7.96298 16.9841 6.34998 15.0001 6.34998C13.0161 6.34998 11.4081 7.96298 11.4081 9.95398C11.4081 11.944 13.0161 13.558 15.0001 13.558Z" stroke="black" stroke-width="1.5" stroke-linecap="round" stroke-linejoin="round"/>
<path d="M7.37305 21.643H22.6271ZM7.37305 21.643C7.35805 21.448 7.35004 21.253 7.35004 21.058C7.35004 19.069 8.15606 17.161 9.59106 15.755C11.0251 14.348 12.9711 13.558 15.0001 13.558C16.0051 13.558 16.999 13.752 17.928 14.129C18.856 14.506 19.6991 15.058 20.4091 15.755C21.1201 16.451 21.6831 17.278 22.0681 18.188C22.4521 19.098 22.6501 20.073 22.6501 21.058C22.6501 21.253 22.6421 21.449 22.6271 21.643" stroke="black" stroke-width="1.5" stroke-linecap="round" stroke-linejoin="round"/>
</g>
</svg>
